<mxfile host="Electron" agent="Mozilla/5.0 (Windows NT 10.0; Win64; x64) AppleWebKit/537.36 (KHTML, like Gecko) draw.io/24.7.17 Chrome/128.0.6613.36 Electron/32.0.1 Safari/537.36" version="24.7.17">
  <diagram name="Page-1" id="8ce9d11a-91a2-4d17-14d8-a56ed91bf033">
    <mxGraphModel dx="1500" dy="887" grid="1" gridSize="10" guides="1" tooltips="1" connect="1" arrows="1" fold="1" page="1" pageScale="1" pageWidth="1100" pageHeight="850" background="none" math="0" shadow="0">
      <root>
        <mxCell id="0" />
        <mxCell id="1" parent="0" />
        <mxCell id="DN2MXkf7WnFbokJZ1J0g-14" style="edgeStyle=orthogonalEdgeStyle;rounded=0;orthogonalLoop=1;jettySize=auto;html=1;exitX=0.5;exitY=1;exitDx=0;exitDy=0;entryX=0.5;entryY=0;entryDx=0;entryDy=0;" edge="1" parent="1" source="17ea667e15c223fc-1" target="17ea667e15c223fc-2">
          <mxGeometry relative="1" as="geometry" />
        </mxCell>
        <mxCell id="17ea667e15c223fc-1" value="&lt;span style=&quot;font-family: Helvetica;&quot;&gt;Browse Catalog&amp;nbsp;&lt;/span&gt;" style="shape=hexagon;perimeter=hexagonPerimeter;whiteSpace=wrap;html=1;rounded=0;shadow=0;labelBackgroundColor=none;strokeWidth=1;fontFamily=Verdana;fontSize=12;align=center;" parent="1" vertex="1">
          <mxGeometry x="80" y="20" width="120" height="80" as="geometry" />
        </mxCell>
        <mxCell id="DN2MXkf7WnFbokJZ1J0g-15" style="edgeStyle=orthogonalEdgeStyle;rounded=0;orthogonalLoop=1;jettySize=auto;html=1;exitX=0.5;exitY=1;exitDx=0;exitDy=0;" edge="1" parent="1" source="17ea667e15c223fc-2" target="DN2MXkf7WnFbokJZ1J0g-1">
          <mxGeometry relative="1" as="geometry" />
        </mxCell>
        <mxCell id="17ea667e15c223fc-2" value="&lt;span style=&quot;font-family: Helvetica;&quot;&gt;Place Books in Cart&lt;/span&gt;" style="rounded=1;whiteSpace=wrap;html=1;shadow=0;labelBackgroundColor=none;strokeWidth=1;fontFamily=Verdana;fontSize=12;align=center;" parent="1" vertex="1">
          <mxGeometry x="80" y="110" width="120" height="80" as="geometry" />
        </mxCell>
        <mxCell id="DN2MXkf7WnFbokJZ1J0g-16" style="edgeStyle=orthogonalEdgeStyle;rounded=0;orthogonalLoop=1;jettySize=auto;html=1;exitX=0.5;exitY=1;exitDx=0;exitDy=0;entryX=0.5;entryY=0;entryDx=0;entryDy=0;" edge="1" parent="1" source="DN2MXkf7WnFbokJZ1J0g-1" target="DN2MXkf7WnFbokJZ1J0g-2">
          <mxGeometry relative="1" as="geometry" />
        </mxCell>
        <mxCell id="DN2MXkf7WnFbokJZ1J0g-1" value="&lt;span style=&quot;font-family: Helvetica;&quot;&gt;Register Order&lt;/span&gt;" style="shape=hexagon;perimeter=hexagonPerimeter;whiteSpace=wrap;html=1;rounded=0;shadow=0;labelBackgroundColor=none;strokeWidth=1;fontFamily=Verdana;fontSize=12;align=center;" vertex="1" parent="1">
          <mxGeometry x="80" y="200" width="120" height="80" as="geometry" />
        </mxCell>
        <mxCell id="DN2MXkf7WnFbokJZ1J0g-17" style="edgeStyle=orthogonalEdgeStyle;rounded=0;orthogonalLoop=1;jettySize=auto;html=1;exitX=0.5;exitY=1;exitDx=0;exitDy=0;" edge="1" parent="1" source="DN2MXkf7WnFbokJZ1J0g-2" target="DN2MXkf7WnFbokJZ1J0g-3">
          <mxGeometry relative="1" as="geometry" />
        </mxCell>
        <mxCell id="DN2MXkf7WnFbokJZ1J0g-2" value="&lt;span style=&quot;font-family: Helvetica;&quot;&gt;Registered&lt;/span&gt;" style="rounded=1;whiteSpace=wrap;html=1;shadow=0;labelBackgroundColor=none;strokeWidth=1;fontFamily=Verdana;fontSize=12;align=center;" vertex="1" parent="1">
          <mxGeometry x="80" y="290" width="120" height="80" as="geometry" />
        </mxCell>
        <mxCell id="DN2MXkf7WnFbokJZ1J0g-18" style="edgeStyle=orthogonalEdgeStyle;rounded=0;orthogonalLoop=1;jettySize=auto;html=1;exitX=0.5;exitY=1;exitDx=0;exitDy=0;entryX=0.5;entryY=0;entryDx=0;entryDy=0;" edge="1" parent="1" source="DN2MXkf7WnFbokJZ1J0g-3" target="DN2MXkf7WnFbokJZ1J0g-4">
          <mxGeometry relative="1" as="geometry" />
        </mxCell>
        <mxCell id="DN2MXkf7WnFbokJZ1J0g-23" style="edgeStyle=orthogonalEdgeStyle;rounded=0;orthogonalLoop=1;jettySize=auto;html=1;exitX=1;exitY=0.5;exitDx=0;exitDy=0;entryX=0.5;entryY=0;entryDx=0;entryDy=0;" edge="1" parent="1" source="DN2MXkf7WnFbokJZ1J0g-3" target="DN2MXkf7WnFbokJZ1J0g-5">
          <mxGeometry relative="1" as="geometry" />
        </mxCell>
        <mxCell id="DN2MXkf7WnFbokJZ1J0g-3" value="OR" style="ellipse;whiteSpace=wrap;html=1;rounded=1;shadow=0;labelBackgroundColor=none;strokeWidth=1;fontFamily=Verdana;fontSize=12;align=center;" vertex="1" parent="1">
          <mxGeometry x="120" y="385" width="40" height="40" as="geometry" />
        </mxCell>
        <mxCell id="DN2MXkf7WnFbokJZ1J0g-19" style="edgeStyle=orthogonalEdgeStyle;rounded=0;orthogonalLoop=1;jettySize=auto;html=1;exitX=0.5;exitY=1;exitDx=0;exitDy=0;entryX=0.5;entryY=0;entryDx=0;entryDy=0;" edge="1" parent="1" source="DN2MXkf7WnFbokJZ1J0g-4" target="DN2MXkf7WnFbokJZ1J0g-8">
          <mxGeometry relative="1" as="geometry" />
        </mxCell>
        <mxCell id="DN2MXkf7WnFbokJZ1J0g-4" value="&lt;span style=&quot;font-family: Helvetica;&quot;&gt;order overtime&lt;/span&gt;" style="shape=hexagon;perimeter=hexagonPerimeter;whiteSpace=wrap;html=1;rounded=0;shadow=0;labelBackgroundColor=none;strokeWidth=1;fontFamily=Verdana;fontSize=12;align=center;" vertex="1" parent="1">
          <mxGeometry x="80" y="450" width="120" height="80" as="geometry" />
        </mxCell>
        <mxCell id="DN2MXkf7WnFbokJZ1J0g-24" style="edgeStyle=orthogonalEdgeStyle;rounded=0;orthogonalLoop=1;jettySize=auto;html=1;exitX=0.5;exitY=1;exitDx=0;exitDy=0;entryX=0.5;entryY=0;entryDx=0;entryDy=0;" edge="1" parent="1" source="DN2MXkf7WnFbokJZ1J0g-5" target="DN2MXkf7WnFbokJZ1J0g-9">
          <mxGeometry relative="1" as="geometry" />
        </mxCell>
        <mxCell id="DN2MXkf7WnFbokJZ1J0g-5" value="&lt;span style=&quot;font-family: Helvetica;&quot;&gt;order intime&lt;/span&gt;" style="shape=hexagon;perimeter=hexagonPerimeter;whiteSpace=wrap;html=1;rounded=0;shadow=0;labelBackgroundColor=none;strokeWidth=1;fontFamily=Verdana;fontSize=12;align=center;" vertex="1" parent="1">
          <mxGeometry x="330" y="30" width="120" height="80" as="geometry" />
        </mxCell>
        <mxCell id="DN2MXkf7WnFbokJZ1J0g-20" style="edgeStyle=orthogonalEdgeStyle;rounded=0;orthogonalLoop=1;jettySize=auto;html=1;exitX=0.5;exitY=1;exitDx=0;exitDy=0;entryX=0.5;entryY=0;entryDx=0;entryDy=0;" edge="1" parent="1" source="DN2MXkf7WnFbokJZ1J0g-8" target="DN2MXkf7WnFbokJZ1J0g-11">
          <mxGeometry relative="1" as="geometry" />
        </mxCell>
        <mxCell id="DN2MXkf7WnFbokJZ1J0g-8" value="&lt;span style=&quot;font-family: Helvetica;&quot;&gt;&amp;gt;N&lt;/span&gt;" style="rounded=1;whiteSpace=wrap;html=1;shadow=0;labelBackgroundColor=none;strokeWidth=1;fontFamily=Verdana;fontSize=12;align=center;" vertex="1" parent="1">
          <mxGeometry x="80" y="540" width="120" height="80" as="geometry" />
        </mxCell>
        <mxCell id="DN2MXkf7WnFbokJZ1J0g-32" style="edgeStyle=orthogonalEdgeStyle;rounded=0;orthogonalLoop=1;jettySize=auto;html=1;exitX=0.5;exitY=1;exitDx=0;exitDy=0;" edge="1" parent="1" source="DN2MXkf7WnFbokJZ1J0g-9" target="DN2MXkf7WnFbokJZ1J0g-10">
          <mxGeometry relative="1" as="geometry" />
        </mxCell>
        <mxCell id="DN2MXkf7WnFbokJZ1J0g-9" value="&lt;span style=&quot;font-family: Helvetica;&quot;&gt;&amp;lt;=N&lt;/span&gt;" style="rounded=1;whiteSpace=wrap;html=1;shadow=0;labelBackgroundColor=none;strokeWidth=1;fontFamily=Verdana;fontSize=12;align=center;" vertex="1" parent="1">
          <mxGeometry x="330" y="120" width="120" height="80" as="geometry" />
        </mxCell>
        <mxCell id="DN2MXkf7WnFbokJZ1J0g-33" style="edgeStyle=orthogonalEdgeStyle;rounded=0;orthogonalLoop=1;jettySize=auto;html=1;exitX=0.5;exitY=1;exitDx=0;exitDy=0;entryX=0.5;entryY=0;entryDx=0;entryDy=0;" edge="1" parent="1" source="DN2MXkf7WnFbokJZ1J0g-10" target="DN2MXkf7WnFbokJZ1J0g-25">
          <mxGeometry relative="1" as="geometry" />
        </mxCell>
        <mxCell id="DN2MXkf7WnFbokJZ1J0g-38" style="edgeStyle=orthogonalEdgeStyle;rounded=0;orthogonalLoop=1;jettySize=auto;html=1;exitX=1;exitY=0.5;exitDx=0;exitDy=0;entryX=0.5;entryY=0;entryDx=0;entryDy=0;" edge="1" parent="1" source="DN2MXkf7WnFbokJZ1J0g-10" target="DN2MXkf7WnFbokJZ1J0g-36">
          <mxGeometry relative="1" as="geometry" />
        </mxCell>
        <mxCell id="DN2MXkf7WnFbokJZ1J0g-10" value="OR" style="ellipse;whiteSpace=wrap;html=1;rounded=1;shadow=0;labelBackgroundColor=none;strokeWidth=1;fontFamily=Verdana;fontSize=12;align=center;" vertex="1" parent="1">
          <mxGeometry x="370" y="220" width="40" height="40" as="geometry" />
        </mxCell>
        <mxCell id="DN2MXkf7WnFbokJZ1J0g-21" style="edgeStyle=orthogonalEdgeStyle;rounded=0;orthogonalLoop=1;jettySize=auto;html=1;exitX=0.5;exitY=1;exitDx=0;exitDy=0;entryX=0.5;entryY=0;entryDx=0;entryDy=0;" edge="1" parent="1" source="DN2MXkf7WnFbokJZ1J0g-11" target="DN2MXkf7WnFbokJZ1J0g-12">
          <mxGeometry relative="1" as="geometry" />
        </mxCell>
        <mxCell id="DN2MXkf7WnFbokJZ1J0g-11" value="&lt;span style=&quot;font-family: Helvetica;&quot;&gt;order&amp;nbsp;&lt;/span&gt;&lt;span style=&quot;font-family: Helvetica;&quot;&gt;Reject&lt;/span&gt;" style="shape=hexagon;perimeter=hexagonPerimeter;whiteSpace=wrap;html=1;rounded=0;shadow=0;labelBackgroundColor=none;strokeWidth=1;fontFamily=Verdana;fontSize=12;align=center;" vertex="1" parent="1">
          <mxGeometry x="80" y="630" width="120" height="80" as="geometry" />
        </mxCell>
        <mxCell id="DN2MXkf7WnFbokJZ1J0g-22" style="edgeStyle=orthogonalEdgeStyle;rounded=0;orthogonalLoop=1;jettySize=auto;html=1;exitX=0.5;exitY=1;exitDx=0;exitDy=0;entryX=0.5;entryY=0;entryDx=0;entryDy=0;" edge="1" parent="1" source="DN2MXkf7WnFbokJZ1J0g-12" target="DN2MXkf7WnFbokJZ1J0g-13">
          <mxGeometry relative="1" as="geometry" />
        </mxCell>
        <mxCell id="DN2MXkf7WnFbokJZ1J0g-12" value="&lt;span style=&quot;font-family: Helvetica;&quot;&gt;Rejected&lt;/span&gt;" style="rounded=1;whiteSpace=wrap;html=1;shadow=0;labelBackgroundColor=none;strokeWidth=1;fontFamily=Verdana;fontSize=12;align=center;" vertex="1" parent="1">
          <mxGeometry x="80" y="720" width="120" height="80" as="geometry" />
        </mxCell>
        <mxCell id="DN2MXkf7WnFbokJZ1J0g-13" value="&lt;font face=&quot;Helvetica&quot;&gt;End&lt;/font&gt;" style="shape=hexagon;perimeter=hexagonPerimeter;whiteSpace=wrap;html=1;rounded=0;shadow=0;labelBackgroundColor=none;strokeWidth=1;fontFamily=Verdana;fontSize=12;align=center;" vertex="1" parent="1">
          <mxGeometry x="80" y="810" width="120" height="80" as="geometry" />
        </mxCell>
        <mxCell id="DN2MXkf7WnFbokJZ1J0g-34" style="edgeStyle=orthogonalEdgeStyle;rounded=0;orthogonalLoop=1;jettySize=auto;html=1;exitX=0.5;exitY=1;exitDx=0;exitDy=0;entryX=0.5;entryY=0;entryDx=0;entryDy=0;" edge="1" parent="1" source="DN2MXkf7WnFbokJZ1J0g-25" target="DN2MXkf7WnFbokJZ1J0g-26">
          <mxGeometry relative="1" as="geometry" />
        </mxCell>
        <mxCell id="DN2MXkf7WnFbokJZ1J0g-25" value="&lt;span style=&quot;font-family: Helvetica;&quot;&gt;Check unavailability&lt;/span&gt;" style="shape=hexagon;perimeter=hexagonPerimeter;whiteSpace=wrap;html=1;rounded=0;shadow=0;labelBackgroundColor=none;strokeWidth=1;fontFamily=Verdana;fontSize=12;align=center;" vertex="1" parent="1">
          <mxGeometry x="330" y="280" width="120" height="80" as="geometry" />
        </mxCell>
        <mxCell id="DN2MXkf7WnFbokJZ1J0g-35" style="edgeStyle=orthogonalEdgeStyle;rounded=0;orthogonalLoop=1;jettySize=auto;html=1;exitX=0.5;exitY=1;exitDx=0;exitDy=0;entryX=0.5;entryY=0;entryDx=0;entryDy=0;" edge="1" parent="1" source="DN2MXkf7WnFbokJZ1J0g-26" target="DN2MXkf7WnFbokJZ1J0g-28">
          <mxGeometry relative="1" as="geometry" />
        </mxCell>
        <mxCell id="DN2MXkf7WnFbokJZ1J0g-26" value="&lt;span style=&quot;font-family: Helvetica;&quot;&gt;Checked&lt;/span&gt;" style="rounded=1;whiteSpace=wrap;html=1;shadow=0;labelBackgroundColor=none;strokeWidth=1;fontFamily=Verdana;fontSize=12;align=center;" vertex="1" parent="1">
          <mxGeometry x="330" y="370" width="120" height="80" as="geometry" />
        </mxCell>
        <mxCell id="DN2MXkf7WnFbokJZ1J0g-27" style="edgeStyle=orthogonalEdgeStyle;rounded=0;orthogonalLoop=1;jettySize=auto;html=1;exitX=0.5;exitY=1;exitDx=0;exitDy=0;entryX=0.5;entryY=0;entryDx=0;entryDy=0;" edge="1" parent="1" source="DN2MXkf7WnFbokJZ1J0g-28" target="DN2MXkf7WnFbokJZ1J0g-30">
          <mxGeometry relative="1" as="geometry" />
        </mxCell>
        <mxCell id="DN2MXkf7WnFbokJZ1J0g-28" value="&lt;span style=&quot;font-family: Helvetica;&quot;&gt;order&amp;nbsp;&lt;/span&gt;&lt;span style=&quot;font-family: Helvetica;&quot;&gt;Reject&lt;/span&gt;" style="shape=hexagon;perimeter=hexagonPerimeter;whiteSpace=wrap;html=1;rounded=0;shadow=0;labelBackgroundColor=none;strokeWidth=1;fontFamily=Verdana;fontSize=12;align=center;" vertex="1" parent="1">
          <mxGeometry x="330" y="470" width="120" height="80" as="geometry" />
        </mxCell>
        <mxCell id="DN2MXkf7WnFbokJZ1J0g-29" style="edgeStyle=orthogonalEdgeStyle;rounded=0;orthogonalLoop=1;jettySize=auto;html=1;exitX=0.5;exitY=1;exitDx=0;exitDy=0;entryX=0.5;entryY=0;entryDx=0;entryDy=0;" edge="1" parent="1" source="DN2MXkf7WnFbokJZ1J0g-30" target="DN2MXkf7WnFbokJZ1J0g-31">
          <mxGeometry relative="1" as="geometry" />
        </mxCell>
        <mxCell id="DN2MXkf7WnFbokJZ1J0g-30" value="&lt;span style=&quot;font-family: Helvetica;&quot;&gt;Rejected&lt;/span&gt;" style="rounded=1;whiteSpace=wrap;html=1;shadow=0;labelBackgroundColor=none;strokeWidth=1;fontFamily=Verdana;fontSize=12;align=center;" vertex="1" parent="1">
          <mxGeometry x="330" y="560" width="120" height="80" as="geometry" />
        </mxCell>
        <mxCell id="DN2MXkf7WnFbokJZ1J0g-31" value="&lt;font face=&quot;Helvetica&quot;&gt;End&lt;/font&gt;" style="shape=hexagon;perimeter=hexagonPerimeter;whiteSpace=wrap;html=1;rounded=0;shadow=0;labelBackgroundColor=none;strokeWidth=1;fontFamily=Verdana;fontSize=12;align=center;" vertex="1" parent="1">
          <mxGeometry x="330" y="650" width="120" height="80" as="geometry" />
        </mxCell>
        <mxCell id="DN2MXkf7WnFbokJZ1J0g-51" style="edgeStyle=orthogonalEdgeStyle;rounded=0;orthogonalLoop=1;jettySize=auto;html=1;exitX=0.5;exitY=1;exitDx=0;exitDy=0;" edge="1" parent="1" source="DN2MXkf7WnFbokJZ1J0g-36" target="DN2MXkf7WnFbokJZ1J0g-37">
          <mxGeometry relative="1" as="geometry" />
        </mxCell>
        <mxCell id="DN2MXkf7WnFbokJZ1J0g-36" value="&lt;span style=&quot;font-family: Helvetica;&quot;&gt;Check Availability&lt;/span&gt;" style="shape=hexagon;perimeter=hexagonPerimeter;whiteSpace=wrap;html=1;rounded=0;shadow=0;labelBackgroundColor=none;strokeWidth=1;fontFamily=Verdana;fontSize=12;align=center;" vertex="1" parent="1">
          <mxGeometry x="550" y="30" width="120" height="80" as="geometry" />
        </mxCell>
        <mxCell id="DN2MXkf7WnFbokJZ1J0g-50" style="edgeStyle=orthogonalEdgeStyle;rounded=0;orthogonalLoop=1;jettySize=auto;html=1;exitX=0.5;exitY=1;exitDx=0;exitDy=0;entryX=0.5;entryY=0;entryDx=0;entryDy=0;" edge="1" parent="1" source="DN2MXkf7WnFbokJZ1J0g-37" target="DN2MXkf7WnFbokJZ1J0g-39">
          <mxGeometry relative="1" as="geometry" />
        </mxCell>
        <mxCell id="DN2MXkf7WnFbokJZ1J0g-37" value="&lt;span style=&quot;font-family: Helvetica;&quot;&gt;Checked&lt;/span&gt;" style="rounded=1;whiteSpace=wrap;html=1;shadow=0;labelBackgroundColor=none;strokeWidth=1;fontFamily=Verdana;fontSize=12;align=center;" vertex="1" parent="1">
          <mxGeometry x="550" y="120" width="120" height="80" as="geometry" />
        </mxCell>
        <mxCell id="DN2MXkf7WnFbokJZ1J0g-47" style="edgeStyle=orthogonalEdgeStyle;rounded=0;orthogonalLoop=1;jettySize=auto;html=1;exitX=0.5;exitY=1;exitDx=0;exitDy=0;entryX=0.5;entryY=0;entryDx=0;entryDy=0;" edge="1" parent="1" source="DN2MXkf7WnFbokJZ1J0g-39" target="DN2MXkf7WnFbokJZ1J0g-40">
          <mxGeometry relative="1" as="geometry" />
        </mxCell>
        <mxCell id="DN2MXkf7WnFbokJZ1J0g-54" style="edgeStyle=orthogonalEdgeStyle;rounded=0;orthogonalLoop=1;jettySize=auto;html=1;exitX=1;exitY=0.5;exitDx=0;exitDy=0;entryX=0.5;entryY=0;entryDx=0;entryDy=0;" edge="1" parent="1" source="DN2MXkf7WnFbokJZ1J0g-39" target="DN2MXkf7WnFbokJZ1J0g-52">
          <mxGeometry relative="1" as="geometry" />
        </mxCell>
        <mxCell id="DN2MXkf7WnFbokJZ1J0g-39" value="OR" style="ellipse;whiteSpace=wrap;html=1;rounded=1;shadow=0;labelBackgroundColor=none;strokeWidth=1;fontFamily=Verdana;fontSize=12;align=center;" vertex="1" parent="1">
          <mxGeometry x="590" y="220" width="40" height="40" as="geometry" />
        </mxCell>
        <mxCell id="DN2MXkf7WnFbokJZ1J0g-48" style="edgeStyle=orthogonalEdgeStyle;rounded=0;orthogonalLoop=1;jettySize=auto;html=1;exitX=0.5;exitY=1;exitDx=0;exitDy=0;entryX=0.5;entryY=0;entryDx=0;entryDy=0;" edge="1" parent="1" source="DN2MXkf7WnFbokJZ1J0g-40" target="DN2MXkf7WnFbokJZ1J0g-41">
          <mxGeometry relative="1" as="geometry" />
        </mxCell>
        <mxCell id="DN2MXkf7WnFbokJZ1J0g-40" value="&lt;span style=&quot;font-family: Helvetica;&quot;&gt;Unpay&lt;/span&gt;" style="shape=hexagon;perimeter=hexagonPerimeter;whiteSpace=wrap;html=1;rounded=0;shadow=0;labelBackgroundColor=none;strokeWidth=1;fontFamily=Verdana;fontSize=12;align=center;" vertex="1" parent="1">
          <mxGeometry x="550" y="280" width="120" height="80" as="geometry" />
        </mxCell>
        <mxCell id="DN2MXkf7WnFbokJZ1J0g-49" style="edgeStyle=orthogonalEdgeStyle;rounded=0;orthogonalLoop=1;jettySize=auto;html=1;exitX=0.5;exitY=1;exitDx=0;exitDy=0;" edge="1" parent="1" source="DN2MXkf7WnFbokJZ1J0g-41" target="DN2MXkf7WnFbokJZ1J0g-43">
          <mxGeometry relative="1" as="geometry" />
        </mxCell>
        <mxCell id="DN2MXkf7WnFbokJZ1J0g-41" value="&lt;span style=&quot;font-family: Helvetica;&quot;&gt;Unpayed&lt;/span&gt;" style="rounded=1;whiteSpace=wrap;html=1;shadow=0;labelBackgroundColor=none;strokeWidth=1;fontFamily=Verdana;fontSize=12;align=center;" vertex="1" parent="1">
          <mxGeometry x="550" y="370" width="120" height="80" as="geometry" />
        </mxCell>
        <mxCell id="DN2MXkf7WnFbokJZ1J0g-42" style="edgeStyle=orthogonalEdgeStyle;rounded=0;orthogonalLoop=1;jettySize=auto;html=1;exitX=0.5;exitY=1;exitDx=0;exitDy=0;entryX=0.5;entryY=0;entryDx=0;entryDy=0;" edge="1" parent="1" source="DN2MXkf7WnFbokJZ1J0g-43" target="DN2MXkf7WnFbokJZ1J0g-45">
          <mxGeometry relative="1" as="geometry" />
        </mxCell>
        <mxCell id="DN2MXkf7WnFbokJZ1J0g-43" value="&lt;span style=&quot;font-family: Helvetica;&quot;&gt;order&amp;nbsp;&lt;/span&gt;&lt;span style=&quot;font-family: Helvetica;&quot;&gt;Reject&lt;/span&gt;" style="shape=hexagon;perimeter=hexagonPerimeter;whiteSpace=wrap;html=1;rounded=0;shadow=0;labelBackgroundColor=none;strokeWidth=1;fontFamily=Verdana;fontSize=12;align=center;" vertex="1" parent="1">
          <mxGeometry x="550" y="470" width="120" height="80" as="geometry" />
        </mxCell>
        <mxCell id="DN2MXkf7WnFbokJZ1J0g-44" style="edgeStyle=orthogonalEdgeStyle;rounded=0;orthogonalLoop=1;jettySize=auto;html=1;exitX=0.5;exitY=1;exitDx=0;exitDy=0;entryX=0.5;entryY=0;entryDx=0;entryDy=0;" edge="1" parent="1" source="DN2MXkf7WnFbokJZ1J0g-45" target="DN2MXkf7WnFbokJZ1J0g-46">
          <mxGeometry relative="1" as="geometry" />
        </mxCell>
        <mxCell id="DN2MXkf7WnFbokJZ1J0g-45" value="&lt;span style=&quot;font-family: Helvetica;&quot;&gt;Rejected&lt;/span&gt;" style="rounded=1;whiteSpace=wrap;html=1;shadow=0;labelBackgroundColor=none;strokeWidth=1;fontFamily=Verdana;fontSize=12;align=center;" vertex="1" parent="1">
          <mxGeometry x="550" y="560" width="120" height="80" as="geometry" />
        </mxCell>
        <mxCell id="DN2MXkf7WnFbokJZ1J0g-46" value="&lt;font face=&quot;Helvetica&quot;&gt;End&lt;/font&gt;" style="shape=hexagon;perimeter=hexagonPerimeter;whiteSpace=wrap;html=1;rounded=0;shadow=0;labelBackgroundColor=none;strokeWidth=1;fontFamily=Verdana;fontSize=12;align=center;" vertex="1" parent="1">
          <mxGeometry x="550" y="650" width="120" height="80" as="geometry" />
        </mxCell>
        <mxCell id="DN2MXkf7WnFbokJZ1J0g-55" style="edgeStyle=orthogonalEdgeStyle;rounded=0;orthogonalLoop=1;jettySize=auto;html=1;exitX=0.5;exitY=1;exitDx=0;exitDy=0;entryX=0.5;entryY=0;entryDx=0;entryDy=0;" edge="1" parent="1" source="DN2MXkf7WnFbokJZ1J0g-52" target="DN2MXkf7WnFbokJZ1J0g-53">
          <mxGeometry relative="1" as="geometry" />
        </mxCell>
        <mxCell id="DN2MXkf7WnFbokJZ1J0g-52" value="&lt;span style=&quot;font-family: Helvetica;&quot;&gt;Pay&lt;/span&gt;" style="shape=hexagon;perimeter=hexagonPerimeter;whiteSpace=wrap;html=1;rounded=0;shadow=0;labelBackgroundColor=none;strokeWidth=1;fontFamily=Verdana;fontSize=12;align=center;" vertex="1" parent="1">
          <mxGeometry x="820" y="30" width="120" height="80" as="geometry" />
        </mxCell>
        <mxCell id="DN2MXkf7WnFbokJZ1J0g-64" style="edgeStyle=orthogonalEdgeStyle;rounded=0;orthogonalLoop=1;jettySize=auto;html=1;exitX=0.5;exitY=1;exitDx=0;exitDy=0;entryX=0.5;entryY=0;entryDx=0;entryDy=0;" edge="1" parent="1" source="DN2MXkf7WnFbokJZ1J0g-53" target="DN2MXkf7WnFbokJZ1J0g-56">
          <mxGeometry relative="1" as="geometry" />
        </mxCell>
        <mxCell id="DN2MXkf7WnFbokJZ1J0g-53" value="&lt;span style=&quot;font-family: Helvetica;&quot;&gt;payed&lt;/span&gt;" style="rounded=1;whiteSpace=wrap;html=1;shadow=0;labelBackgroundColor=none;strokeWidth=1;fontFamily=Verdana;fontSize=12;align=center;" vertex="1" parent="1">
          <mxGeometry x="820" y="120" width="120" height="80" as="geometry" />
        </mxCell>
        <mxCell id="DN2MXkf7WnFbokJZ1J0g-65" style="edgeStyle=orthogonalEdgeStyle;rounded=0;orthogonalLoop=1;jettySize=auto;html=1;exitX=0.5;exitY=1;exitDx=0;exitDy=0;" edge="1" parent="1" source="DN2MXkf7WnFbokJZ1J0g-56" target="DN2MXkf7WnFbokJZ1J0g-57">
          <mxGeometry relative="1" as="geometry" />
        </mxCell>
        <mxCell id="DN2MXkf7WnFbokJZ1J0g-56" value="&lt;span style=&quot;font-family: Arial, sans-serif; text-align: start; text-wrap: nowrap;&quot;&gt;Collect Books&lt;/span&gt;&lt;br&gt;&lt;div&gt;&lt;span style=&quot;font-family: Arial, sans-serif; text-align: start; text-wrap: nowrap;&quot;&gt;Pack Order&lt;/span&gt;&lt;span style=&quot;font-family: Arial, sans-serif; text-align: start; text-wrap: nowrap;&quot;&gt;&lt;br&gt;&lt;/span&gt;&lt;/div&gt;" style="shape=hexagon;perimeter=hexagonPerimeter;whiteSpace=wrap;html=1;rounded=0;shadow=0;labelBackgroundColor=none;strokeWidth=1;fontFamily=Verdana;fontSize=12;align=center;" vertex="1" parent="1">
          <mxGeometry x="820" y="220" width="120" height="80" as="geometry" />
        </mxCell>
        <mxCell id="DN2MXkf7WnFbokJZ1J0g-66" style="edgeStyle=orthogonalEdgeStyle;rounded=0;orthogonalLoop=1;jettySize=auto;html=1;exitX=0.5;exitY=1;exitDx=0;exitDy=0;entryX=0.5;entryY=0;entryDx=0;entryDy=0;" edge="1" parent="1" source="DN2MXkf7WnFbokJZ1J0g-57" target="DN2MXkf7WnFbokJZ1J0g-58">
          <mxGeometry relative="1" as="geometry" />
        </mxCell>
        <mxCell id="DN2MXkf7WnFbokJZ1J0g-57" value="&lt;span style=&quot;font-family: Helvetica;&quot;&gt;collected，packed&lt;/span&gt;" style="rounded=1;whiteSpace=wrap;html=1;shadow=0;labelBackgroundColor=none;strokeWidth=1;fontFamily=Verdana;fontSize=12;align=center;" vertex="1" parent="1">
          <mxGeometry x="820" y="320" width="120" height="80" as="geometry" />
        </mxCell>
        <mxCell id="DN2MXkf7WnFbokJZ1J0g-67" style="edgeStyle=orthogonalEdgeStyle;rounded=0;orthogonalLoop=1;jettySize=auto;html=1;exitX=0.5;exitY=1;exitDx=0;exitDy=0;entryX=0.5;entryY=0;entryDx=0;entryDy=0;" edge="1" parent="1" source="DN2MXkf7WnFbokJZ1J0g-58" target="DN2MXkf7WnFbokJZ1J0g-59">
          <mxGeometry relative="1" as="geometry" />
        </mxCell>
        <mxCell id="DN2MXkf7WnFbokJZ1J0g-58" value="&lt;div&gt;&lt;span style=&quot;font-family: Arial, sans-serif; text-align: start; text-wrap: nowrap;&quot;&gt;Deliver to Center&lt;/span&gt;&lt;span style=&quot;font-family: Arial, sans-serif; text-align: start; text-wrap: nowrap;&quot;&gt;&lt;br&gt;&lt;/span&gt;&lt;/div&gt;" style="shape=hexagon;perimeter=hexagonPerimeter;whiteSpace=wrap;html=1;rounded=0;shadow=0;labelBackgroundColor=none;strokeWidth=1;fontFamily=Verdana;fontSize=12;align=center;" vertex="1" parent="1">
          <mxGeometry x="820" y="420" width="120" height="80" as="geometry" />
        </mxCell>
        <mxCell id="DN2MXkf7WnFbokJZ1J0g-68" style="edgeStyle=orthogonalEdgeStyle;rounded=0;orthogonalLoop=1;jettySize=auto;html=1;exitX=0.5;exitY=1;exitDx=0;exitDy=0;entryX=0.5;entryY=0;entryDx=0;entryDy=0;" edge="1" parent="1" source="DN2MXkf7WnFbokJZ1J0g-59" target="DN2MXkf7WnFbokJZ1J0g-61">
          <mxGeometry relative="1" as="geometry" />
        </mxCell>
        <mxCell id="DN2MXkf7WnFbokJZ1J0g-59" value="&lt;span style=&quot;font-family: Helvetica;&quot;&gt;delivered&lt;/span&gt;" style="rounded=1;whiteSpace=wrap;html=1;shadow=0;labelBackgroundColor=none;strokeWidth=1;fontFamily=Verdana;fontSize=12;align=center;" vertex="1" parent="1">
          <mxGeometry x="820" y="520" width="120" height="80" as="geometry" />
        </mxCell>
        <mxCell id="DN2MXkf7WnFbokJZ1J0g-69" style="edgeStyle=orthogonalEdgeStyle;rounded=0;orthogonalLoop=1;jettySize=auto;html=1;exitX=0.5;exitY=1;exitDx=0;exitDy=0;entryX=0.5;entryY=0;entryDx=0;entryDy=0;" edge="1" parent="1" source="DN2MXkf7WnFbokJZ1J0g-61" target="DN2MXkf7WnFbokJZ1J0g-62">
          <mxGeometry relative="1" as="geometry" />
        </mxCell>
        <mxCell id="DN2MXkf7WnFbokJZ1J0g-61" value="&lt;div&gt;&lt;span style=&quot;font-family: Arial, sans-serif; text-align: start; text-wrap: nowrap;&quot;&gt;Client Picks Up Order&lt;/span&gt;&lt;span style=&quot;font-family: Arial, sans-serif; text-align: start; text-wrap: nowrap;&quot;&gt;&lt;br&gt;&lt;/span&gt;&lt;/div&gt;" style="shape=hexagon;perimeter=hexagonPerimeter;whiteSpace=wrap;html=1;rounded=0;shadow=0;labelBackgroundColor=none;strokeWidth=1;fontFamily=Verdana;fontSize=12;align=center;" vertex="1" parent="1">
          <mxGeometry x="820" y="610" width="120" height="80" as="geometry" />
        </mxCell>
        <mxCell id="DN2MXkf7WnFbokJZ1J0g-70" style="edgeStyle=orthogonalEdgeStyle;rounded=0;orthogonalLoop=1;jettySize=auto;html=1;exitX=0.5;exitY=1;exitDx=0;exitDy=0;entryX=0.5;entryY=0;entryDx=0;entryDy=0;" edge="1" parent="1" source="DN2MXkf7WnFbokJZ1J0g-62" target="DN2MXkf7WnFbokJZ1J0g-63">
          <mxGeometry relative="1" as="geometry" />
        </mxCell>
        <mxCell id="DN2MXkf7WnFbokJZ1J0g-62" value="&lt;span style=&quot;font-family: Helvetica;&quot;&gt;picked&lt;/span&gt;" style="rounded=1;whiteSpace=wrap;html=1;shadow=0;labelBackgroundColor=none;strokeWidth=1;fontFamily=Verdana;fontSize=12;align=center;" vertex="1" parent="1">
          <mxGeometry x="820" y="710" width="120" height="80" as="geometry" />
        </mxCell>
        <mxCell id="DN2MXkf7WnFbokJZ1J0g-63" value="&lt;font face=&quot;Helvetica&quot;&gt;End&lt;/font&gt;" style="shape=hexagon;perimeter=hexagonPerimeter;whiteSpace=wrap;html=1;rounded=0;shadow=0;labelBackgroundColor=none;strokeWidth=1;fontFamily=Verdana;fontSize=12;align=center;" vertex="1" parent="1">
          <mxGeometry x="820" y="810" width="120" height="80" as="geometry" />
        </mxCell>
      </root>
    </mxGraphModel>
  </diagram>
</mxfile>
